# xmcd
#
# Track frame offsets: 
#        150
#        16491
#        29400
#        51834
#        68109
#        85772
#        101964
#        115992
#        131910
#        150124
#        171547
#        183647
#        199689
#        220563
#        241947
#        257406
#        271743
#        287553
#        303018
#        318659
#
# Disc length: 4418 seconds
#
# Revision: 0
# Processed by: cddbd v1.5.2PL0 Copyright (c) Steve Scherf et al.
# Submitted via: ExactAudioCopy v1.1
#
DISCID=17114014
DTITLE=Various Artist - Radio 2 - Duitse Klassiekers - CD 2
DYEAR=2019
DGENRE=Chanson
TTITLE0=Matthias Reim - Verdammt, Ich Lieb' Dich
TTITLE1=Tenpole Tudor - Wünderbar
TTITLE2=Peter Schilling - Major Tom (Völlig Losgelöst)
TTITLE3=Spider Murphy Gang - Skandal Im Sperrbezirk
TTITLE4=Tokio Hotel - Durch Den Monsun
TTITLE5=Peter Fox - Haus Am See
TTITLE6=Costa Cordalis - Anita
TTITLE7=Marc Pircher - Sieben Sünden
TTITLE8=Polarkreis 18 - Allein Allein
TTITLE9=Grauzone - Eisbär
TTITLE10=Andreas Dorau and Die Marinas - Fred Vom Jupiter
TTITLE11=Münchener Freiheit - Tausendmal Du
TTITLE12=Christian Anders - Es Fährt Ein Zug Nach Nirgendwo
TTITLE13=Ideal - Monotonie
TTITLE14=Heino - La Paloma
TTITLE15=Juliane Werding - Geh Nicht In Die Stadt (Heut Nacht)
TTITLE16=Vicky Leandros - Dann Kamst Du (Après Toi)
TTITLE17=Oswald Sattler and Jantje Smit - Ich Zeig' Dir Die Berge
TTITLE18=G.G. Anderson - Little Darling
TTITLE19=Freddy Breck - Rote Rosen
EXTD=
EXTT0=
EXTT1=
EXTT2=
EXTT3=
EXTT4=
EXTT5=
EXTT6=
EXTT7=
EXTT8=
EXTT9=
EXTT10=
EXTT11=
EXTT12=
EXTT13=
EXTT14=
EXTT15=
EXTT16=
EXTT17=
EXTT18=
EXTT19=
PLAYORDER=
